The.Hobbit.2012.DVDSCR.XVID.AC3.Hive-CM8



Soutce: DVDSCR - Thekillingjoke, Big Thx

Video.: 640x272 @bitrate 1000 2pass
Audio.: English AC3 2.0 Stereo
Sample: Yes, included


IMDb..: http://www.imdb.com/title/tt0903624/


General
Complete name : The.Hobbit.2012.DVDSCR.XVID.AC3.Hive-CM8.avi
Format : AVI
Format/Info : Audio Video Interleave
File size : 1.50 GiB
Duration : 2h 49mn
Overall bit rate : 1 265 Kbps
Writing application : Nandub v1.0rc2
Writing library : Nandub build 1853/release

Video
ID : 0
Format : MPEG-4 Visual
Format profile : Advanced Simple@L5
Format settings, BVOP : 2
Format settings, QPel : Yes
Format settings, GMC : No warppoints
Format settings, Matrix : Default (H.263)
Muxing mode : Packed bitstream
Codec ID : XVID
Codec ID/Hint : XviD
Duration : 2h 49mn
Bit rate : 997 Kbps
Width : 640 pixels
Height : 272 pixels
Display aspect ratio : 2.35:1
Frame rate : 29.534 fps
Original frame rate : 29.547 fps
Color space : YUV
Chroma subsampling : 4:2:0
Bit depth : 8 bits
Scan type : Progressive
Compression mode : Lossy
Bits/(Pixel*Frame) : 0.194
Stream size : 1.18 GiB (79%)
Writing library : XviD 1.2.1 (UTC 2008-12-04)

Audio
ID : 1
Format : AC-3
Format/Info : Audio Coding 3
Mode extension : CM (complete main)
Format settings, Endianness : Big
Codec ID : 2000
Duration : 2h 49mn
Bit rate mode : Constant
Bit rate : 256 Kbps
Channel(s) : 2 channels
Channel positions : Front: L R
Sampling rate : 48.0 KHz
Bit depth : 16 bits
Compression mode : Lossy
Stream size : 310 MiB (20%)
Alignment : Split accross interleaves
Interleave, duration : 34 ms (1.00 video frame)
Interleave, preload duration : 500 ms
